<svg width="1000" height="1000" viewBox="0 0 1000 1000" xmlns="http://www.w3.org/2000/svg">
  
  <rect x="0" y="0" width="100%" height="100%" fill="#ffffff" rx="25" />

<g transform="scale(7) translate(-27,-27)">

  <circle cx="100" cy="100" r="50" stroke="#000080" fill="#000080" />

  <circle cx="100" cy="100" r="35" stroke="#000080" fill="#ffffff" fill-rule="evenodd" />

  <rect x="90" y="40" width="20" height="20" stroke="#000080" fill="#000080" />
  <rect x="140" y="90" width="20" height="20" stroke="#000080" fill="#000080" />
  <rect x="90" y="140" width="20" height="20" stroke="#000080" fill="#000080"/>
  <rect x="40" y="90" width="20" height="20" stroke="#000080" fill="#000080"/>

  <g transform="rotate(45 100 100)">
    <rect x="90" y="40" width="20" height="20" stroke="#000080" fill="#000080" />
    <rect x="140" y="90" width="20" height="20" stroke="#000080" fill="#000080" />
    <rect x="90" y="140" width="20" height="20" stroke="#000080" fill="#000080"/>
    <rect x="40" y="90" width="20" height="20" stroke="#000080" fill="#000080"/>
  </g>
  
  <g transform="scale(2.5) translate(28,29)">
    <path d="M12 21.35l-1.45-1.32C5.4 15.36 2 12.28 2 8.5 2 5.42 4.42 3 7.5 3c1.74 0 3.41.81 4.5 2.09C13.09 3.81 14.76 3 16.5 3 19.58 3 22 5.42 22 8.5c0 3.78-3.4 6.86-8.55 11.54L12 21.35z" fill="#000080" />
  </g>

</g>

</svg>

