<?xml version="1.0" standalone="no"?>
<!DOCTYPE svg PUBLIC "-//W3C//DTD SVG 20010904//EN"
 "http://www.w3.org/TR/2001/REC-SVG-20010904/DTD/svg10.dtd">
<svg version="1.0" xmlns="http://www.w3.org/2000/svg"
 width="311.000000pt" height="198.000000pt" viewBox="0 0 311.000000 198.000000"
 preserveAspectRatio="xMidYMid meet">

<g transform="translate(0.000000,198.000000) scale(0.100000,-0.100000)"
fill="#000000" stroke="none">
<path d="M1345 1603 c-224 -18 -380 -54 -495 -114 -131 -68 -180 -150 -180
-302 1 -211 80 -352 251 -442 66 -34 84 -39 159 -43 184 -9 368 67 525 217 40
38 49 42 78 37 l32 -6 1 -237 c0 -226 6 -313 22 -313 4 0 5 124 3 276 l-3 275
103 -6 c57 -4 142 -11 189 -15 83 -8 115 -1 94 20 -5 5 -92 13 -193 16 l-183
7 7 66 c4 36 20 97 35 136 15 38 25 74 22 79 -9 15 -41 -33 -57 -86 -16 -55
-61 -132 -97 -165 -21 -20 -29 -21 -113 -13 -147 13 -349 16 -355 5 -3 -6 65
-12 190 -17 107 -3 205 -10 218 -15 22 -8 20 -11 -40 -59 -160 -129 -264 -173
-428 -181 -114 -6 -175 13 -269 82 -109 80 -158 185 -168 355 -4 82 -2 103 17
153 12 32 38 74 58 94 100 101 367 167 647 161 111 -2 130 0 133 13 2 12 -9
18 -50 22 -52 7 -75 7 -153 0z m381 -609 c-3 -8 -17 -14 -31 -14 l-25 0 28 39
c26 37 27 37 30 14 2 -14 1 -31 -2 -39z"/>
</g>
</svg>
